<svg width="16" height="16" viewBox="0 0 16 16" fill="none" xmlns="http://www.w3.org/2000/svg">
<g clip-path="url(#clip0_25_2)">
<path d="M0.250671 8C0.250671 12.2812 3.71942 15.75 8.00067 15.75C12.2819 15.75 15.7507 12.2812 15.7507 8C15.7507 3.71875 12.2819 0.25 8.00067 0.25C3.71942 0.25 0.250671 3.71875 0.250671 8ZM14.2507 8C14.2507 11.4531 11.4538 14.25 8.00067 14.25C4.54755 14.25 1.75067 11.4531 1.75067 8C1.75067 4.54688 4.54755 1.75 8.00067 1.75C11.4538 1.75 14.2507 4.54688 14.2507 8ZM10.8913 8.26562L7.0538 12.1031C6.90692 12.25 6.66942 12.25 6.52255 12.1031L5.8163 11.3969C5.66942 11.25 5.66942 11.0125 5.8163 10.8656L8.68192 8L5.8163 5.13438C5.66942 4.9875 5.66942 4.75 5.8163 4.60313L6.52255 3.89687C6.66942 3.75 6.90692 3.75 7.0538 3.89687L10.8913 7.73438C11.0382 7.88125 11.0382 8.11875 10.8913 8.26562Z" fill="#FFA068"/>
</g>
<defs>
<clipPath id="clip0_25_2">
<rect width="16" height="16" fill="white" transform="translate(0.000671387)"/>
</clipPath>
</defs>
</svg>
