<svg width="16" height="16" viewBox="0 0 16 16" fill="none" xmlns="http://www.w3.org/2000/svg">
<g clip-path="url(#clip0_25_5)">
<path d="M15.75 8C15.75 3.71875 12.2812 0.25 8 0.25C3.71875 0.25 0.25 3.71875 0.25 8C0.25 12.2812 3.71875 15.75 8 15.75C12.2812 15.75 15.75 12.2812 15.75 8ZM1.75 8C1.75 4.54688 4.54688 1.75 8 1.75C11.4531 1.75 14.25 4.54688 14.25 8C14.25 11.4531 11.4531 14.25 8 14.25C4.54688 14.25 1.75 11.4531 1.75 8ZM5.10938 7.73438L8.94687 3.89687C9.09375 3.75 9.33125 3.75 9.47812 3.89687L10.1844 4.60313C10.3312 4.75 10.3312 4.9875 10.1844 5.13438L7.31875 8L10.1844 10.8656C10.3312 11.0125 10.3312 11.25 10.1844 11.3969L9.47812 12.1031C9.33125 12.25 9.09375 12.25 8.94687 12.1031L5.10938 8.26562C4.9625 8.11875 4.9625 7.88125 5.10938 7.73438Z" fill="#FFA068"/>
</g>
<defs>
<clipPath id="clip0_25_5">
<rect width="16" height="16" fill="white"/>
</clipPath>
</defs>
</svg>
