<svg width="25" height="24" viewBox="0 0 25 24" fill="none" xmlns="http://www.w3.org/2000/svg">
<path d="M22.4165 6.75H21.1931C21.4837 6.18281 21.6665 5.55469 21.6665 4.875C21.6665 2.60156 19.8149 0.75 17.5415 0.75C15.5915 0.75 14.3306 1.74844 12.7134 3.95156C11.0962 1.74844 9.83525 0.75 7.88525 0.75C5.61182 0.75 3.76025 2.60156 3.76025 4.875C3.76025 5.55469 3.93838 6.18281 4.23369 6.75H2.9165C1.67432 6.75 0.666504 7.75781 0.666504 9V15C0.666504 15.4125 1.004 15.75 1.4165 15.75H2.1665V20.7844C2.1665 22.1437 3.27275 23.25 4.63213 23.25H20.7009C22.0603 23.25 23.1665 22.1437 23.1665 20.7844V15.75H23.9165C24.329 15.75 24.6665 15.4125 24.6665 15V9C24.6665 7.75781 23.6587 6.75 22.4165 6.75ZM11.5415 21H4.63213C4.51494 21 4.4165 20.9062 4.4165 20.7844V15.75H9.6665V13.5H2.9165V9H11.5415V21ZM7.88057 6.75C6.84463 6.75 6.00557 5.91094 6.00557 4.875C6.00557 3.83906 6.84463 3 7.88057 3C8.91182 3 9.63838 3.35625 11.8228 6.60938L11.9165 6.75H7.88057ZM13.5993 6.60938C15.7837 3.35625 16.5103 3 17.5415 3C18.5774 3 19.4165 3.83906 19.4165 4.875C19.4165 5.91094 18.5774 6.75 17.5415 6.75H13.5056L13.5993 6.60938ZM22.4165 13.5H15.6665V15.75H20.9165V20.7844C20.9165 20.9016 20.8228 21 20.7009 21H13.7915V9H22.4165V13.5Z" fill="#FFA068"/>
</svg>
