<svg width="25" height="24" viewBox="0 0 25 24" fill="none" xmlns="http://www.w3.org/2000/svg">
<path d="M10.8335 4.50469V6.79219L12.2257 8.18438C11.9069 6.55313 12.3897 4.88906 13.5616 3.71719C14.5132 2.76563 15.7741 2.25469 17.0772 2.25469H17.1335L14.4429 4.93594L15.1507 9.18281L19.3976 9.89062L22.0835 7.20469C22.0976 8.53125 21.5866 9.80625 20.621 10.7719C20.1851 11.2078 19.6741 11.5406 19.1304 11.7844C19.2147 11.8594 19.3132 11.9203 19.3929 12L20.8319 13.4391C21.3241 13.1438 21.7929 12.7875 22.2101 12.3656C23.996 10.5797 24.7272 7.94531 24.1179 5.49375C23.9772 4.92188 23.5366 4.47188 22.9741 4.3125C22.4022 4.15312 21.7929 4.31719 21.3804 4.73438L18.6288 7.48125L17.1101 7.22812L16.8569 5.70938L19.6038 2.9625C20.021 2.54531 20.1804 1.93594 20.021 1.36875C19.8663 0.801563 19.4116 0.360937 18.8397 0.220312C16.346 -0.398438 13.7819 0.314063 11.9679 2.12344C11.4897 2.60156 11.1007 3.14062 10.7819 3.7125L10.8335 3.75V4.50469ZM5.30225 21.2812C4.70225 21.8813 3.64756 21.8813 3.04756 21.2812C2.74756 20.9813 2.57881 20.5781 2.57881 20.1562C2.57881 19.7297 2.74287 19.3312 3.04756 19.0312L9.34756 12.7313L7.7585 11.1422L1.4585 17.4375C0.731934 18.1641 0.333496 19.1297 0.333496 20.1562C0.333496 21.1828 0.731934 22.1484 1.4585 22.875C2.18506 23.6016 3.15068 24 4.17725 24C5.20381 24 6.16943 23.6016 6.896 22.875L11.6257 18.1453C11.171 17.4047 10.9132 16.5609 10.8897 15.7031L5.30225 21.2812ZM23.8226 18.5484L18.3335 13.0594C17.2507 11.9766 15.6335 11.7656 14.3304 12.4078L9.3335 7.41094V4.5L3.3335 0L0.333496 3L4.8335 9H7.74443L12.7413 13.9969C12.1038 15.3 12.3101 16.9172 13.3929 18L18.8819 23.4891C19.5663 24.1734 20.6726 24.1734 21.3522 23.4891L23.8226 21.0187C24.5022 20.3344 24.5022 19.2281 23.8226 18.5484Z" fill="#FFA068"/>
</svg>
